PathFileType	4	(X/Y/Z)	C:/Users/opensim2020/Desktop/walking_exp_matlab/subject02_walking11_straight_04.trc																																																																																																																												
DataRate	CameraRate	NumFrames	NumMarkers	Units	OrigDataRate	OrigDataStartFrame	OrigNumFrames																																																																																																																								
100	100	7	42	mm	100	3368	227																																																																																																																								
Frame#	Time	LFHD			RFHD			LBHD			RBHD			C7			T10			CLAV			STRN			RBAK			LSHO			LUPA			LELB			LFRM			LWRA			LWRB			LFIN			RSHO			RUPA			RELB			RFRM			RWRA			RWRB			RFIN			LASI			RASI			LPSI			RPSI			LTHI			LKNE			LTIB			LANK			LHEE			LTOE			RTHI			RKNE			RTIB			RANK			RHEE			RTOE			*39			*40			*41		
		X1	Y1	Z1	X2	Y2	Z2	X3	Y3	Z3	X4	Y4	Z4	X5	Y5	Z5	X6	Y6	Z6	X7	Y7	Z7	X8	Y8	Z8	X9	Y9	Z9	X10	Y10	Z10	X11	Y11	Z11	X12	Y12	Z12	X13	Y13	Z13	X14	Y14	Z14	X15	Y15	Z15	X16	Y16	Z16	X17	Y17	Z17	X18	Y18	Z18	X19	Y19	Z19	X20	Y20	Z20	X21	Y21	Z21	X22	Y22	Z22	X23	Y23	Z23	X24	Y24	Z24	X25	Y25	Z25	X26	Y26	Z26	X27	Y27	Z27	X28	Y28	Z28	X29	Y29	Z29	X30	Y30	Z30	X31	Y31	Z31	X32	Y32	Z32	X33	Y33	Z33	X34	Y34	Z34	X35	Y35	Z35	X36	Y36	Z36	X37	Y37	Z37	X38	Y38	Z38	X39	Y39	Z39	X40	Y40	Z40	X41	Y41	Z41	X42	Y42	Z42
																																																																																																																															
142	1.41	322.97705	1732.6416	1011.44623	314.57779	1706.33752	1152.36047	194.65433	1657.0083	991.71881	173.71727	1629.08105	1131.24695	140.93285	1508.64795	1056.35925	100.37681	1230.45435	1063.20691	284.25403	1447.03979	1046.72095	343.76556	1277.7428	1055.31165	90.13891	1331.21301	1118.61792	218.38615	1488.6991	876.00983	221.98871	1285.18933	795.71582	230.65868	1144.3252	787.68176	251.33734	1014.33411	777.50031	312.82733	893.45514	814.46063	269.94345	892.67157	777.62744	294.86172	831.26154	774.32617	216.73033	1474.51819	1244.21729	187.99646	1283.50684	1325.07532	200.40678	1138.04614	1342.85815	228.38332	1021.6875	1364.64319	277.57849	894.86371	1349.58984	230.39928	892.17792	1380.40051	266.44043	828.42316	1383.89478	335.19333	966.15039	932.44153	352.12906	976.28052	1182.79736	130.04482	1014.02191	1017.90997	130.86389	1020.13531	1134.81018	226.46988	657.7583	875.47681	172.63261	473.44183	893.24017	21.3952	358.68301	908.58838	-104.09716	172.11407	939.13342	-134.97168	174.02518	997.6485	-24.16951	34.61209	931.85376	339.44434	674.79559	1257.90759	371.47473	467.41614	1210.45435	350.30273	279.02414	1215.021	346.49615	88.48573	1175.62	314.76309	36.74565	1117.62573	499.79932	36.87673	1192.00317	214.92146	1791.83813	1098.2616	NaN	NaN	NaN	NaN	NaN	NaN
143	1.42	330.67447	1733.76624	1012.71448	322.51898	1707.50378	1153.69873	202.03922	1658.19238	992.95941	181.79868	1630.36255	1132.6571	148.90459	1509.59851	1058.32874	108.93547	1231.3158	1065.67957	292.30634	1448.38647	1048.19409	352.66504	1279.36365	1056.90637	99.17523	1331.46509	1119.72998	225.69315	1489.78845	877.71844	228.04276	1286.37512	797.84052	234.38637	1145.22595	790.94867	251.79482	1015.39868	779.99432	309.73657	892.07581	816.13892	267.11389	893.18567	779.01477	289.77695	830.71484	775.94641	225.15779	1476.01038	1245.79211	198.39738	1284.92053	1327.28125	212.32243	1139.5791	1345.35632	241.91263	1023.67059	1367.46338	292.11264	897.24011	1351.83875	245.21725	894.28314	1383.29504	282.03574	830.72699	1386.41248	343.35873	967.25049	935.39807	360.59766	977.6488	1184.99194	138.21941	1014.9054	1020.2641	139.52174	1021.20349	1137.19177	240.04559	656.99847	875.88934	190.77553	473.07059	892.65973	39.04665	361.34351	908.25494	-90.18893	178.86247	939.23804	-120.47099	182.09047	998.50476	-18.02751	37.63165	930.81348	343.66379	674.95142	1259.33911	374.87048	467.55164	1211.53601	352.67886	279.16129	1216.1073	346.89398	88.52063	1175.74329	314.80563	36.77028	1117.62988	499.89737	36.75284	1192.13452	222.59137	1792.82751	1099.46973	NaN	NaN	NaN	NaN	NaN	NaN
144	1.43	338.05017	1735.15759	1013.73547	330.41946	1708.75281	1154.98059	210.16304	1659.39063	994.52014	189.58383	1631.41492	1134.255	156.93413	1510.58118	1060.29541	117.26319	1232.27698	1068.03027	300.3342	1449.68152	1049.53503	360.48029	1280.61853	1058.29688	107.46537	1332.58777	1122.61572	232.83043	1490.83569	879.37354	233.53821	1287.47253	799.70013	237.77815	1146.39417	793.87177	251.96767	1016.43915	782.2464	306.8063	890.9126	817.91565	264.41843	893.66418	780.33026	284.69681	830.27582	777.65857	233.55527	1477.49939	1247.28625	208.64682	1286.26367	1329.45178	224.17633	1141.05469	1347.90686	255.33119	1025.55469	1369.85876	307.02911	899.66956	1354.42676	260.23978	896.24103	1385.89819	297.8284	833.12958	1388.95862	351.19284	968.33527	937.75757	368.85309	978.67834	1186.87256	146.14645	1015.9574	1022.71014	148.01726	1022.51404	1139.67529	253.96745	656.8761	876.49243	209.16005	473.01767	892.02155	57.09776	363.61923	907.71106	-76.11252	185.62885	940.79901	-105.41585	189.03909	1000.38696	-7.77746	42.44162	927.22064	347.96854	674.72675	1260.10718	377.80118	467.60657	1212.80396	354.58099	279.30145	1217.04578	347.19827	88.64777	1175.89697	314.75201	36.76463	1117.58679	499.93723	36.65416	1192.25146	230.31558	1794.11145	1100.87756	NaN	NaN	NaN	NaN	NaN	NaN
145	1.44	345.78799	1736.23694	1014.95728	338.31119	1710.08118	1156.07471	217.32468	1660.51367	995.78564	197.60329	1632.57031	1135.63379	164.7592	1511.52502	1061.94592	125.38285	1233.38342	1070.27844	308.50861	1450.99451	1050.7002	368.55634	1281.86731	1059.59229	115.71408	1333.91309	1125.16638	239.90216	1491.81726	880.8573	239.25594	1288.53613	801.47137	241.18204	1147.47095	796.6651	252.44777	1017.53259	784.33624	304.17206	890.01245	819.6911	262.23785	894.51813	781.62054	280.1492	830.22675	779.13049	242.386	1478.84924	1248.78662	218.75882	1287.72351	1331.92017	235.85896	1142.56946	1350.74487	268.60638	1027.4519	1371.94775	321.79373	902.18317	1356.49585	275.39716	898.22046	1388.38867	313.84	835.42786	1391.41284	358.86157	969.5293	939.22894	376.91888	979.36176	1188.45947	153.90691	1016.96033	1025.23132	156.37288	1023.94659	1142.17419	267.66431	657.48425	876.91571	227.49805	473.38916	891.74677	75.00479	366.10388	907.14929	-61.23733	191.64973	943.25189	-89.30781	194.14471	1003.54254	5.34021	48.24541	922.18402	351.88342	674.48669	1261.64038	380.39124	467.54556	1213.80164	355.8844	279.36514	1217.89343	347.36011	88.72857	1175.97046	314.67358	36.80333	1117.61377	499.88101	36.57637	1192.41882	237.91364	1795.20813	1102.20605	NaN	NaN	NaN	NaN	NaN	NaN
146	1.45	353.43594	1737.56445	1015.84924	346.18176	1711.48486	1157.0791	224.96924	1661.58618	997.06781	205.62616	1633.7074	1136.90942	172.65807	1512.66895	1063.72607	133.31807	1234.57031	1072.46985	316.55637	1452.2782	1051.69128	376.30832	1282.93042	1060.67957	124.14754	1334.88538	1126.87	246.84518	1492.73889	882.25574	244.39087	1289.36487	803.1701	244.47758	1148.34937	799.26013	253.18565	1018.48328	786.3075	302.34155	889.58575	821.49518	260.35434	895.22412	782.93329	276.00815	829.75592	781.18811	251.53	1480.13025	1250.35583	228.97806	1288.94409	1333.6698	247.54283	1144.0332	1353.38562	281.97964	1029.3689	1374.86243	336.6756	904.91882	1358.64954	290.54602	900.21057	1390.78931	330.005	838.38739	1393.87476	366.08966	970.65741	940.27356	384.94324	979.75842	1189.77832	161.46902	1018.03381	1027.87573	164.41306	1025.3562	1144.70581	281.02835	658.59418	877.37433	245.74837	474.30246	891.67365	92.67397	368.98685	907.56177	-45.42838	196.87683	946.28601	-72.01727	197.35762	1007.59698	20.35034	54.83269	917.03625	355.99725	674.56183	1262.24744	382.6315	467.31934	1214.87805	356.86615	279.3327	1218.47717	347.40567	88.74466	1176.00256	314.64896	36.81457	1117.62732	499.83716	36.56149	1192.55334	245.51988	1796.37622	1103.31946	NaN	NaN	NaN	NaN	NaN	NaN
147	1.46	360.68124	1739.1908	1016.61261	354.05295	1712.91174	1157.94519	232.5618	1662.68433	998.25879	213.52437	1634.78516	1138.1886	180.58667	1513.96094	1065.27783	141.09618	1235.83875	1074.49402	324.50305	1453.45923	1052.70068	384.42761	1284.16565	1061.57776	132.37228	1336.27527	1129.08008	253.84338	1493.6554	883.47937	249.52092	1290.26636	804.83923	247.86649	1149.24585	801.56042	253.9613	1019.22736	788.20386	299.74509	888.80035	823.2782	259.33926	895.73621	784.4563	271.91754	829.69702	782.98291	260.51114	1481.40002	1251.58215	239.17336	1290.24963	1335.69641	259.25473	1145.48743	1355.9978	295.33722	1031.2334	1377.29358	351.73697	907.67694	1360.75208	305.76364	902.22668	1393.06934	346.26111	841.22302	1396.20618	373.11938	971.86462	940.89447	392.84219	979.84387	1190.97412	168.87999	1019.07086	1030.50684	172.28311	1026.75208	1147.14441	294.24866	660.01398	877.84143	263.73279	475.77646	891.91431	110.28239	372.02438	909.31464	-28.55451	201.10211	949.63464	-53.82494	199.09222	1011.70593	37.29241	61.23109	911.85089	360.23038	675.14447	1263.93884	384.82242	467.15646	1215.65442	357.76813	279.22455	1219.13416	347.31406	88.54456	1175.85547	314.53061	36.76211	1117.60938	499.87415	36.52733	1192.72473	253.10983	1797.5011	1104.37805	NaN	NaN	NaN	NaN	NaN	NaN
148	1.47	368.13394	1740.59766	1017.35242	362.06436	1714.23828	1158.77686	240.18292	1663.82715	999.44135	221.42847	1635.87195	1139.60779	188.49277	1515.31396	1066.9209	148.73549	1237.20972	1076.52979	332.18082	1454.56274	1053.64551	391.90381	1285.29871	1062.4231	140.22728	1337.74414	1131.68188	260.69684	1494.53699	884.66467	254.38365	1291.10681	806.31989	251.12109	1150.1062	803.55939	254.72008	1020.34625	790.00952	297.98816	888.56165	824.97345	257.85474	896.94623	785.69482	268.93103	830.29205	784.60938	269.54355	1482.83191	1252.81226	249.41061	1291.61072	1337.6283	271.02817	1146.97986	1358.31689	308.74899	1033.19971	1379.52771	366.6799	910.66138	1362.83838	320.95074	904.3916	1395.31494	362.60596	844.31158	1398.54419	380.10684	973.15741	941.14282	400.58508	979.87634	1192.13965	176.02315	1020.26941	1033.18945	179.93361	1028.1759	1149.54199	306.86136	661.64209	878.13495	281.44586	477.62299	892.03815	128.27469	374.6098	911.79102	-10.29072	204.04228	952.35284	-35.00174	199.85345	1015.13	55.7891	67.19341	906.76215	365.05774	675.64539	1264.87671	386.82526	466.95364	1216.48901	358.78552	279.17487	1219.79492	347.40359	88.70296	1176.0271	314.44052	36.84692	1117.59692	499.68057	36.49697	1192.86328	260.76486	1798.93872	1105.62671	NaN	NaN	NaN	NaN	NaN	NaN
